<?xml version="1.0" standalone="no"?><!DOCTYPE svg PUBLIC "-//W3C//DTD SVG 1.1//EN" "http://www.w3.org/Graphics/SVG/1.1/DTD/svg11.dtd"><svg class="icon" width="200px" height="200.00px" viewBox="0 0 1024 1024" version="1.1" xmlns="http://www.w3.org/2000/svg"><path d="M601.71229493 295.40814503h52.35008241V401.48316059H601.71229493z" fill="#F2F2F2" /><path d="M653.95661873 412.05893483H601.71229493c-5.81667597 0-10.57577425-4.75909827-10.57577425-10.57577424V295.40814503c0-5.81667597 4.75909827-10.57577425 10.57577425-10.57577424h52.35008241c5.81667597 0 10.57577425 4.75909827 10.57577425 10.57577424V401.48316059c-0.10575722 5.92243319-4.8648555 10.57577425-10.68153286 10.57577424zM612.28806919 390.90738634h31.1985339v-84.92346705H612.28806919V390.90738634z" fill="#4C1088" /><path d="M349.16280917 437.22927696v199.45910006c0 16.49820743 15.75790417 29.92944038 35.11157029 29.92944039h218.70700899c19.35366612 0 35.11157029-13.53699153 35.11157028-29.92944039v-198.824554L493.94515698 322.48212673 349.16280917 437.22927696z" fill="#F2F2F2" /><path d="M602.98138845 677.19359165H384.27437946c-25.17034211 0-45.68734453-18.19033122-45.68734454-40.50521463V437.22927696c0-3.27849031 1.48060795-6.23970623 4.01879362-8.24910443l144.78234782-114.74714883c3.91303639-3.06697451 9.30668073-3.06697451 13.21971849 0l144.04204315 115.3816963c2.53818565 2.0093968 3.91303639 5.07637131 3.91303639 8.24910302v198.824554c0.10575722 22.31488342-20.41124384 40.50521463-45.58158594 40.50521463z m-243.24280503-234.78218618v194.27697155c0 10.47001702 11.21032033 19.35366612 24.53579604 19.35366614h218.70700899c13.32547571 0 24.53579604-8.88365049 24.53579604-19.35366614V442.94019433L493.94515698 336.01911828 359.73858342 442.41140547z" fill="#4C1088" /><path d="M493.62788396 603.37468909s83.2313419-48.54280323 83.23134191-104.06561875c0-26.86246588-21.78609458-48.54280323-48.54280325-48.54280324-13.53699153 0-25.91064678 5.60516015-34.68853866 14.59456924-8.88365049-8.9894077-21.15154849-14.59456786-34.68854004-14.59456924-26.86246588 0-48.54280323 21.78609458-48.54280323 48.54280324 0 55.41705691 83.2313419 104.06561737 83.23134327 104.06561875z" fill="#FF418E" /><path d="M493.62788396 613.95046334c-1.79788099 0-3.70152058-0.52878885-5.28788712-1.48060933-3.59576336-2.11515541-88.51922902-52.3500824-88.51923042-113.16078367 0-32.57338465 26.54519284-59.11857748 59.1185775-59.1185761 12.69092966 0 24.64155326 3.91303639 34.68854004 11.21032032 10.0469854-7.29728393 21.99761039-11.21032033 34.68853866-11.21032032 32.57338465 0 59.11857748 26.54519284 59.11857749 59.1185761 0 60.91645846-84.92346705 111.04562826-88.51922902 113.16078367-1.58636656 0.95181909-3.38424754 1.48060795-5.28788713 1.48060933z m-5.28788712-19.77669776zM458.93934392 461.23628414c-20.94003268 0-37.96702897 17.02699629-37.96702898 37.96702899 0 41.13976208 55.09978388 80.16436739 72.65556902 91.58620491 17.55578515-11.42183614 72.65556903-50.44644283 72.65556765-91.58620491 0-20.94003268-17.02699629-37.96702897-37.96702899-37.96702899-10.25850122 0-19.88245499 4.01879361-27.0739817 11.42183615-2.0093968 2.0093968-4.75909827 3.17273172-7.50879974 3.17273171-2.85545869 0-5.60516015-1.16333492-7.50879976-3.17273171-7.40304252-7.29728393-17.02699629-11.42183614-27.2854975-11.42183615z" fill="#4C1088" /><path d="M628.89203522 264.94991581s36.0633894-21.0457899 36.0633894-45.0527971c0-11.63335196-9.41243933-21.0457899-21.04579128-21.04579129-5.92243319 0-11.21032033 2.43242843-15.01759812 6.34546484-3.80727917-3.91303639-9.0951663-6.34546482-15.01759948-6.34546484-11.63335196 0-21.0457899 9.41243933-21.04579129 21.04579129 0 24.00700719 36.0633894 45.05279849 36.06339077 45.0527971z" fill="#24FBD0" /><path d="M628.89203522 275.52569005c-1.79788099 0-3.70152058-0.52878885-5.28788712-1.48060796-4.23030942-2.43242843-41.35127652-24.9588263-41.35127791-54.14796338 0-17.45002793 14.17153761-31.62156415 31.62156555-31.62156554 5.28788714 0 10.47001702 1.26909351 15.01759948 3.80727918 4.54758246-2.43242843 9.72971236-3.80727917 15.01759812-3.80727918 17.45002793 0 31.62156415 14.17153761 31.62156553 31.62156554 0 29.29489431-37.1209671 51.71553495-41.35127651 54.14796338-1.58636656 1.0575777-3.49000614 1.48060795-5.28788714 1.48060796z m-15.01759948-66.09858838c-5.81667597 0-10.47001702 4.65334106-10.47001704 10.47001704 0 11.42183614 14.80608368 24.9588263 25.48761652 32.46762603 9.94122818-6.98001089 25.48761515-20.41124384 25.48761515-32.46762603 0-5.81667597-4.65334106-10.47001702-10.47001703-10.47001704-2.85545869 0-5.49940294 1.16333492-7.50879837 3.17273172-2.0093968 2.0093968-4.75909827 3.17273172-7.50879975 3.17273311-2.85545869 0-5.60516015-1.16333492-7.50879974-3.17273311-2.0093968-2.0093968-4.75909827-3.17273172-7.50879974-3.17273172z" fill="#4C1088" /><path d="M494.15667281 260.9311222L252.71174876 446.64171629h84.18316239l157.26176166-124.79413562 156.09842536 124.79413562H728.62158458z" fill="#E64290" /><path d="M728.62158458 457.21749055h-78.36648641c-2.43242843 0-4.75909827-0.84606189-6.55697928-2.32667124l-149.54144608-119.50624711-150.7047824 119.50624711c-1.90363959 1.48060795-4.23030942 2.32666983-6.55697926 2.32667124H252.71174876c-4.54758246 0-8.56637745-2.85545869-10.04698539-7.19152672s0-8.9894077 3.59576335-11.73910917l241.44492266-185.71059409c3.80727917-2.96121729 9.20092351-2.96121729 13.00820269 0.10575721l234.46491315 185.71059409c3.49000614 2.74970146 4.8648555 7.50879975 3.38424753 11.73910916s-5.39364434 7.08576812-9.94122817 7.08576952z m-74.66496585-21.15154851h44.2067366l-204.11244112-161.7035869-210.24639014 161.7035869h49.38886513l154.40630296-122.46746441c3.91303639-3.06697451 9.30668073-3.06697451 13.21971712 0l153.13720945 122.46746441z" fill="#4C1088" /></svg>