<?xml version="1.0" standalone="no"?><!DOCTYPE svg PUBLIC "-//W3C//DTD SVG 1.1//EN" "http://www.w3.org/Graphics/SVG/1.1/DTD/svg11.dtd"><svg class="icon" width="200px" height="200.00px" viewBox="0 0 1024 1024" version="1.1" xmlns="http://www.w3.org/2000/svg"><path d="M784 216.6H389.4c-13.3 0-26.1 5.1-35.7 14.1l-35.3 33.1c-5.8 5.4-2.1 15.1 5.8 15.3l99.4 3.1c14.9 0.5 29.1 6.6 39.6 17.2 0 0 286 286.1 286.5 286.7h34.9c23.1 0 41.9-18.7 41.9-41.9V259.1c0-23.4-19-42.5-42.5-42.5z" fill="#1E88E5" /><path d="M707.1 586L453.4 332.3c-9.4-9.4-22-14.8-35.3-15.3l-203.5-6.4c-24.8-0.8-45.1 19.5-44.5 44.3l5.4 199.5c0.4 15 6.5 29.3 17.2 39.9l253.5 253.5c16.4 16.4 42.9 16.4 59.2 0l201.7-201.7c16.6-16.6 16.6-43.5 0-60.1z m-428-133.4c-18.4 0-33.3-14.9-33.3-33.3s14.9-33.3 33.3-33.3 33.3 14.9 33.3 33.3-14.9 33.3-33.3 33.3z" fill="#64B5F6" /></svg>