<?xml version="1.0" standalone="no"?><!DOCTYPE svg PUBLIC "-//W3C//DTD SVG 1.1//EN" "http://www.w3.org/Graphics/SVG/1.1/DTD/svg11.dtd"><svg class="icon" width="200px" height="200.00px" viewBox="0 0 1024 1024" version="1.1" xmlns="http://www.w3.org/2000/svg"><path d="M278.706705 618.890556l74.447726 326.88051H285.380389L179.235222 618.890556h63.603756z" fill="#E09B2D" /><path d="M411.544563 618.890556l32.115187 326.88051h-90.505319L278.706705 618.890556z" fill="#E09B2D" /><path d="M845.404707 618.890556L739.156127 945.771066h-67.670629l74.447725-326.88051h35.764315zM745.933223 618.890556l-74.447725 326.88051h-90.608732L613.095365 618.890556z" fill="#F7B239" /><path d="M613.095365 618.890556l-32.218599 326.88051H443.65975L411.544563 618.890556z" fill="#F7B239" /><path d="M594.327547 213.495449H430.417841c-2.397939-48.380629 22.730254-96.135665 68.399635-120.32598 25.650375-13.555218 53.906538-17.621066 80.599229-13.241909-16.578751 35.243157-16.891036 77.680132 2.711249 114.799047 3.649127 6.673685 7.611564 12.929624 12.199593 18.768842z" fill="#2BA5F7" /><path d="M571.909578 100.364311c1.981218-6.98597 4.483594-13.867503 7.507127-20.436751-26.69269-4.379158-54.948854-0.313309-80.599229 13.241909-45.669381 24.085878-70.902011 71.840914-68.399635 120.32598h84.978387c-2.190091-44.001472 18.455533-87.480762 56.51335-113.131138z" fill="#2197D8" /><path d="M721.326187 233.306606c12.199594 12.199594 19.811157 29.09063 19.811158 47.755035 0 37.327787-30.237381 67.566193-67.566193 67.566193h-322.605788c-18.664406 0-35.555442-7.507127-47.755036-19.811157-12.199594-12.199594-19.811157-29.09063-19.811157-47.755036 0-37.327787 30.237381-67.566193 67.566193-67.566192h322.605788c18.663382 0 35.555442 7.611564 47.755035 19.811157z" fill="#2BA5F7" /><path d="M777.735102 368.437967c12.199594 12.199594 19.811157 29.09063 19.811157 47.755035 0 37.327787-30.237381 67.566193-67.566193 67.566193H294.659862c-18.664406 0-35.555442-7.507127-47.755035-19.811157-12.199594-12.199594-19.811157-29.09063-19.811157-47.755036 0-37.327787 30.237381-67.566193 67.566192-67.566192H729.874606c18.665429 0 35.556466 7.611564 47.860496 19.811157z" fill="#2BA5F7" /><path d="M829.451549 503.569328c12.199594 12.199594 19.811157 29.09063 19.811158 47.755036 0 37.327787-30.237381 67.566193-67.566193 67.566192H242.837954c-18.664406 0-35.555442-7.507127-47.755035-19.811157-12.199594-12.199594-19.811157-29.09063-19.811157-47.755035 0-37.327787 30.237381-67.566193 67.566192-67.566193h538.961972c18.560993 0.001024 35.453053 7.508151 47.651623 19.811157z" fill="#2BA5F7" /><path d="M466.911162 328.816677c12.199594 12.199594 29.09063 19.811157 47.755035 19.811157H350.965364c-18.664406 0-35.555442-7.507127-47.755036-19.811157-12.199594-12.199594-19.811157-29.09063-19.811157-47.755036 0-37.327787 30.237381-67.566193 67.566193-67.566192h163.80527c-37.327787 0-67.566193 30.237381-67.566193 67.566192 0 18.663382 7.507127 35.555442 19.706721 47.755036z" fill="#2197D8" /><path d="M410.606684 463.948038c12.199594 12.199594 29.09063 19.811157 47.755035 19.811157H294.659862c-18.664406 0-35.555442-7.507127-47.755035-19.811157-12.199594-12.199594-19.811157-29.09063-19.811157-47.755036 0-37.327787 30.237381-67.566193 67.566192-67.566192h163.80527c-37.327787 0-67.566193 30.237381-67.566193 67.566192-0.103412 18.664406 7.508151 35.555442 19.707745 47.755036z" fill="#2197D8" /><path d="M358.889212 599.079399c12.199594 12.199594 29.09063 19.811157 47.755036 19.811157H242.838978c-18.664406 0-35.555442-7.507127-47.755035-19.811157-12.199594-12.199594-19.811157-29.09063-19.811158-47.755035 0-37.327787 30.237381-67.566193 67.566193-67.566193h163.80527c-37.327787 0-67.566193 30.237381-67.566193 67.566193 0 18.664406 7.508151 35.555442 19.811157 47.755035z" fill="#2197D8" /><path d="M800.986514 567.068648c-8.653879 0-15.744285-7.090406-15.744285-15.744284 0-0.938903-0.312285-1.772345-1.042315-2.502376-1.042315-1.042315-2.190091-1.042315-2.502376-1.042315-8.653879 0-15.744285-7.090406-15.744285-15.744285s7.090406-15.744285 15.744285-15.744285c9.383909 0 18.142224 3.649127 24.815908 10.322812 3.858 3.858 10.218376 12.095157 10.218376 24.711473-0.001024 8.653879-7.090406 15.743261-15.745308 15.74326zM749.165629 431.937287c-8.653879 0-15.744285-7.090406-15.744284-15.744285 0-0.938903-0.312285-1.772345-1.042315-2.397939-1.042315-1.042315-2.190091-1.042315-2.502376-1.042315-8.653879 0-15.744285-7.090406-15.744285-15.744285s7.090406-15.744285 15.744285-15.744285c12.616315 0 20.957909 6.464812 24.815908 10.322812 3.858 3.858 10.218376 12.095157 10.218376 24.711473-0.001024 8.548419-6.986993 15.638824-15.745309 15.638824zM692.860128 296.805926c-8.653879 0-15.744285-7.090406-15.744285-15.744285 0-0.313309 0-1.46006-1.042315-2.502376-0.73003-0.73003-1.564497-1.042315-2.502376-1.042315-8.653879 0-15.744285-7.090406-15.744285-15.744285 0-8.653879 7.090406-15.744285 15.744285-15.744284 12.616315 0 20.957909 6.464812 24.711472 10.218375 3.858 3.858 10.218376 12.095157 10.218376 24.815909 0.104436 8.652855-6.881533 15.743261-15.640872 15.743261zM522.903355 187.741661c-7.194842 0-13.763067-5.004751-15.327563-12.407442a192.231398 192.231398 0 0 1-4.379158-37.745533c-0.104436-8.653879 6.777097-15.848721 15.536436-15.953157h0.208873c8.550466 0 15.639848 6.881533 15.744284 15.536436 0.208873 10.530661 1.355624 21.166781 3.649127 31.488569 1.876782 8.44603-3.544691 16.891036-11.990721 18.767818-1.251188 0.208873-2.398963 0.313309-3.441278 0.313309z" fill="#FFFFFF" /><path d="M846.864767 603.249684c11.365127-14.285248 18.24666-32.323036 18.246661-51.92532 0-41.602509-30.759563-76.220071-70.694163-82.371575 11.781848-14.38866 18.872254-32.739757 18.872255-52.759787 0-43.062569-32.844193-78.618011-74.864448-82.892732 11.574-14.285248 18.455533-32.427472 18.455533-52.238629 0-45.98269-37.327787-83.310477-83.310477-83.310477H602.354808c-2.190091-3.336842-4.379158-6.777097-6.255939-10.322812-16.683187-31.593006-17.621066-68.399635-2.39794-100.722671a15.904011 15.904011 0 0 0-0.313308-14.076375c-2.293503-4.379158-6.569248-7.402691-11.365128-8.237158-31.176284-5.109188-62.457005 0.104436-90.504295 14.910842-44.522629 23.564721-73.404387 68.81738-76.636793 118.449198h-63.916041c-45.98269 0-83.310477 37.327787-83.310477 83.310477 0 19.811157 6.98597 37.953381 18.455533 52.238629-41.915817 4.274721-74.864447 39.830163-74.864448 82.892732 0 20.02003 7.090406 38.371126 18.872255 52.759787-39.934599 6.151503-70.694162 40.66463-70.694162 82.371575 0 19.602285 6.881533 37.641096 18.24666 51.92532-4.483594 0.416721-8.653879 2.711248-11.260691 6.360376a15.747356 15.747356 0 0 0-2.190091 14.076375l106.145168 326.984946c2.085654 6.464812 8.132721 10.843969 15.014255 10.843969H739.258515c6.777097 0 12.825188-4.379158 15.014254-10.843969l106.145168-326.88051a15.741213 15.741213 0 0 0-2.190091-14.076375c-2.812613-3.754587-6.879485-6.048091-11.363079-6.465836zM506.220167 107.142432c16.057594-8.44603 33.365351-12.929624 51.091878-13.137473-10.113939 34.304254-7.194842 71.006447 8.758315 103.747229H446.370998c3.231382-37.954405 25.649351-72.571968 59.849169-90.609756zM350.965364 229.239733h322.605788c28.569472 0 51.820884 23.251412 51.820884 51.820884 0 28.569472-23.251412 51.820884-51.820884 51.820884h-322.605788c-28.569472 0-51.820884-23.251412-51.820884-51.820884s23.251412-51.820884 51.820884-51.820884z m-56.305502 135.132385h435.320204c28.569472 0 51.820884 23.251412 51.820884 51.820884 0 28.569472-23.251412 51.820884-51.820884 51.820884H294.659862c-28.569472 0-51.820884-23.251412-51.820884-51.820884 0-28.569472 23.251412-51.820884 51.820884-51.820884z m-51.820884 135.131362h538.85856c28.569472 0 51.820884 23.251412 51.820884 51.820884 0 28.569472-23.251412 51.820884-51.820884 51.820884H242.838978c-28.569472 0-51.820884-23.251412-51.820884-51.820884 0-28.569472 23.251412-51.820884 51.820884-51.820884z m-42.020254 135.131361H266.09039l67.252884 295.39194H296.745517l-95.926793-295.39194z m97.595726 0h98.845889l28.986193 295.39194h-60.580223L298.41445 634.634841z m159.529524 295.39194l-28.986193-295.39194h166.828803l-28.986194 295.39194H457.943974z m140.344986 0l28.986193-295.39194h98.845889l-67.252883 295.39194h-60.579199z m129.501016 0h-36.597758l67.252884-295.39194H823.716768l-95.926792 295.39194z" fill="#333333" /></svg>