<?xml version="1.0" standalone="no"?><!DOCTYPE svg PUBLIC "-//W3C//DTD SVG 1.1//EN" "http://www.w3.org/Graphics/SVG/1.1/DTD/svg11.dtd"><svg class="icon" width="200px" height="200.00px" viewBox="0 0 1024 1024" version="1.1" xmlns="http://www.w3.org/2000/svg"><path d="M502.212684 407.855525c-45.910793 54.531744-452.853511-54.092245-452.853511-192.399353s111.869524-198.822807 250.176632-198.822807 239.290568 347.677903 202.676879 391.22216zM474.422794 608.537753c-40.197299-47.736406-396.327115 47.330714-396.327116 168.395919a219.005976 219.005976 0 0 0 219.005976 219.005976c120.963782 0 209.370795-349.30067 177.32114-387.401895zM545.148404 415.529862c40.163492 47.736406 396.327115-47.330714 396.327115-168.362111A219.005976 219.005976 0 0 0 722.435736 28.161775c-120.963782 0-209.336987 349.266863-177.287332 387.368087zM545.148404 608.537753c40.163492-47.736406 396.327115 47.330714 396.327115 168.395919a219.005976 219.005976 0 0 1-219.039783 219.005976c-120.963782 0-209.336987-349.30067-177.287332-387.401895z" fill="#56E5BE" /><path d="M498.426227 368.571032c-7.403876 70.996071-431.68992-46.992638-431.68992-185.198322S167.821189 21.941167 306.026874 21.941167s197.369078 298.994883 192.399353 346.629865zM482.97613 632.574994c-40.163492-47.736406-387.503318 53.720361-387.503318 174.684143s98.346462 191.080854 219.310245 191.080854 200.242728-327.731388 168.193073-365.764997zM516.411899 387.807587c40.163492 47.770214 396.327115-47.330714 396.327115-168.362112 0-60.853775-39.3183-140.132721-86.818053-191.2837-25.964277-28.026544-49.764865 19.101324-75.560104 15.686751-20.960745-2.806035-38.74357-44.524679-53.483707-21.907359-54.15986 83.234442-212.514906 327.799003-180.465251 365.86642zM538.522104 580.916901c40.197299-47.736406 374.21691 57.811087 374.21691 178.774868a219.005976 219.005976 0 0 1-219.039783 219.005976c-120.963782 0-187.226782-359.645812-155.177127-397.780844z" fill="#50DDB8" /><path d="M522.936776 342.708178c46.857407 53.720361-453.022549-54.092245-453.02255-192.399353 0-14.537291 22.61732-19.473208 25.017663-33.334346 20.284592-117.887286 91.280663-58.554855 193.176929-91.280663 131.782231-42.05672 198.045231 274.822411 234.827958 317.014362zM479.493942 651.64251c-40.197299-47.736406-373.540757 57.912509-373.540758 178.876292a218.634092 218.634092 0 0 0 81.81452 170.728648c37.526495 30.224042 89.962164-40.366338 141.992143-40.366338 120.896167 0 181.78375-271.137377 149.734095-309.238602z" fill="#42D3AD" /><path d="M505.052527 360.592426c-37.627918 49.798673 396.327115-47.330714 396.327116-168.362111S832.209185 25.795239 711.245403 25.795239s-177.693024 297.101654-206.192876 334.797187zM546.669748 626.252963c40.197299-47.770214 333.005381 59.974776 333.005382 180.938559s-47.330714 181.378058-168.429727 181.378058-196.62531-324.249199-164.575655-362.316617z" fill="#42D3AD" /><path d="M434.056456 508.636139c-65.68827 0-153.148668-24.34151-205.178646-43.341412-65.11354-23.665357-216.605632-89.725511-216.605632-189.322856A276.27614 276.27614 0 0 1 288.244049 0c59.738123 0 116.737826 54.666975 164.846116 158.050778a864.799762 864.799762 0 0 1 61.49612 190.539931c20.859322 106.696953 2.096074 128.976196-4.056918 136.312457-14.40206 17.241903-42.530027 23.732972-76.472911 23.732973zM288.244049 51.522863a224.787084 224.787084 0 0 0-224.550431 224.550431c0 35.903727 46.350292 79.414177 123.972663 116.399749 121.369474 57.811087 260.318928 74.782528 283.105286 59.6367 11.967909-30.96781-21.265014-211.061177-93.038661-325.871967-30.122619-48.10829-61.901813-74.714913-89.488857-74.714913z m182.020403 401.871571z" fill="#2E3138" /><path d="M275.971871 1021.633464A276.27614 276.27614 0 0 1 0.169038 745.661593c0-99.462115 151.492093-165.454654 216.605633-189.322856 78.907062-28.80412 239.358183-69.948034 281.651556-19.709862 6.152993 7.336261 24.91624 29.615504 4.056919 136.346264a864.529301 864.529301 0 0 1-61.496121 190.506125C392.709697 967.000297 335.709994 1021.633464 275.971871 1021.633464z m150.173594-457.248506c-53.179438 0-157.171779 20.284592-250.785169 64.910694-77.757602 36.951765-123.972663 80.462214-123.972664 116.365941a224.820892 224.820892 0 0 0 224.550431 224.584239c27.587045 0 59.366239-26.539008 89.488858-74.748721 71.773647-114.94602 105.00657-294.870349 93.038661-325.838159-5.273994-3.482188-16.498135-5.273994-32.320117-5.273994z m31.813002 4.124534zM590.653505 510.867444c-33.807653 0-62.104658-6.524877-76.506719-23.665357-6.152993-7.336261-24.91624-29.615504-4.056918-136.346265a864.799762 864.799762 0 0 1 61.428505-190.370893C619.626663 57.101126 676.626366 2.434151 736.364489 2.434151a276.27614 276.27614 0 0 1 275.971871 275.971871c0 99.495923-151.492093 165.488461-216.605633 189.322856-51.793324 18.898478-139.422761 43.138565-205.077222 43.138566z m-36.748919-56.560204c22.853973 15.145829 161.735812-1.825613 283.105286-59.6367 77.757602-36.951765 123.972663-80.462214 123.972663-116.399749a224.820892 224.820892 0 0 0-224.550431-224.55043c-27.587045 0-59.366239 26.539008-89.488857 74.74872-71.773647 114.912212-105.00657 295.00558-93.038661 325.97339z m0.507115 1.115653z" fill="#2E3138" /><path d="M748.704282 1024c-59.738123 0-116.737826-54.666975-164.846116-158.050778a864.799762 864.799762 0 0 1-61.49612-190.539931c-20.859322-106.73076-2.096074-129.010004 4.056918-136.346265 42.293374-50.238172 202.845918-9.060451 281.651557 19.74367 65.147347 23.665357 216.605632 89.725511 216.605632 189.322856a276.27614 276.27614 0 0 1-275.971871 275.870448z m-182.561326-452.00832c-12.001717 30.96781 21.231206 211.061177 93.004853 325.838159 30.122619 48.209713 61.901813 74.748721 89.488858 74.748721a224.820892 224.820892 0 0 0 224.550431-224.550431c0-35.937535-46.350292-79.447984-123.938856-116.399749-121.335666-57.811087-260.183697-74.782528-283.037671-59.6367z" fill="#2E3138" /></svg>