<?xml version="1.0" standalone="no"?><!DOCTYPE svg PUBLIC "-//W3C//DTD SVG 1.1//EN" "http://www.w3.org/Graphics/SVG/1.1/DTD/svg11.dtd"><svg class="icon" width="200px" height="200.00px" viewBox="0 0 1024 1024" version="1.1" xmlns="http://www.w3.org/2000/svg"><path d="M651.35 134.9a197.93 197.93 0 0 0-62.85-40.24 208.7 208.7 0 0 0-154.33 0 197.93 197.93 0 0 0-62.85 40.24c-37.15 35.29-57.62 82.16-57.62 132s20.46 96.68 57.62 132a197.93 197.93 0 0 0 62.85 40.24 208.7 208.7 0 0 0 154.33 0 197.93 197.93 0 0 0 62.85-40.24c37.15-35.29 57.62-82.16 57.62-132s-20.47-96.71-57.62-132zM610.82 326c-21.55 33.1-58.74 52.87-99.49 52.87s-77.94-19.8-99.49-52.87a14.58 14.58 0 0 1 24.43-15.9c16.15 24.81 44.21 39.63 75.06 39.63s58.9-14.81 75.05-39.62A14.58 14.58 0 0 1 610.82 326z" fill="#FFCC66" /><path d="M723.54 266.87c0-111.33-95-201.58-212.21-201.58s-212.2 90.25-212.2 201.58 95 201.58 212.2 201.58 212.21-90.25 212.21-201.58z m-72.19 132a197.93 197.93 0 0 1-62.85 40.24 208.7 208.7 0 0 1-154.33 0 197.93 197.93 0 0 1-62.85-40.24c-37.15-35.29-57.62-82.16-57.62-132s20.46-96.68 57.62-132a197.93 197.93 0 0 1 62.85-40.24 208.7 208.7 0 0 1 154.33 0 197.93 197.93 0 0 1 62.85 40.24c37.15 35.29 57.62 82.16 57.62 132s-20.47 96.67-57.62 131.97z"  /><path d="M606.56 305.8a14.58 14.58 0 0 0-20.17 4.26c-16.15 24.81-44.21 39.62-75.05 39.62s-58.91-14.81-75.06-39.63A14.58 14.58 0 0 0 411.84 326c21.55 33.11 58.74 52.88 99.49 52.88s77.94-19.76 99.49-52.87a14.58 14.58 0 0 0-4.26-20.21zM229.38 612.86c-36.82 40.88-65.73 88.52-85.95 141.58a484.68 484.68 0 0 0-31.38 159.2H910.6a484.68 484.68 0 0 0-31.38-159.2C859 701.38 830.1 653.75 793.28 612.86s-79.44-72.77-127-95.09a362.95 362.95 0 0 0-309.94 0c-47.52 22.33-90.24 54.32-126.96 95.09z" fill="#3399CC" /><path d="M511.33 468.45c-228.68 0-414.05 205.85-414.05 459.77h828.11c0-253.93-185.39-459.77-414.06-459.77z m0 14.58a362 362 0 0 1 155 34.75c47.54 22.33 90.26 54.32 127 95.09s65.67 88.51 85.9 141.57a484.68 484.68 0 0 1 31.38 159.2H112.06a484.68 484.68 0 0 1 31.38-159.2c20.21-53.06 49.13-100.7 85.95-141.58s79.44-72.77 127-95.09A362 362 0 0 1 511.33 483z"  /></svg>