<?xml version="1.0" standalone="no"?><!DOCTYPE svg PUBLIC "-//W3C//DTD SVG 1.1//EN" "http://www.w3.org/Graphics/SVG/1.1/DTD/svg11.dtd"><svg class="icon" width="200px" height="200.00px" viewBox="0 0 1024 1024" version="1.1" xmlns="http://www.w3.org/2000/svg"><path d="M512 511.317333m-266.24 0a266.24 266.24 0 1 0 532.48 0 266.24 266.24 0 1 0-532.48 0Z" fill="#FFE55C" /><path d="M635.562667 482.645333c-11.605333 0-20.48-8.874667-20.48-20.48V409.6c0-11.605333 8.874667-20.48 20.48-20.48s20.48 8.874667 20.48 20.48v52.565333c0 11.605333-8.874667 20.48-20.48 20.48zM410.282667 478.549333c-5.461333 0-10.24-2.048-14.336-6.144l-36.864-36.864c-8.192-8.192-8.192-21.162667 0-28.672 8.192-8.192 21.162667-8.192 28.672 0l36.864 36.864c8.192 8.192 8.192 21.162667 0 28.672-4.096 4.096-8.874667 6.144-14.336 6.144z" fill="#4D4D4D" /><path d="M410.282667 478.549333h-52.565334c-11.605333 0-20.48-8.874667-20.48-20.48s8.874667-20.48 20.48-20.48h52.565334c11.605333 0 20.48 8.874667 20.48 20.48s-8.874667 20.48-20.48 20.48zM515.413333 662.186667c-51.882667 0-101.034667-23.210667-133.802666-63.488-7.509333-8.874667-6.144-21.845333 2.730666-28.672 8.874667-7.509333 21.845333-6.144 28.672 2.730666 25.258667 30.72 62.805333 48.469333 102.4 48.469334 39.594667 0 77.141333-17.749333 102.4-48.469334 7.509333-8.874667 19.797333-10.24 28.672-2.730666 8.874667 7.509333 10.24 19.797333 2.730667 28.672-33.450667 40.277333-81.92 63.488-133.802667 63.488z" fill="#4D4D4D" /><path d="M512 873.813333c-199.338667 0-361.813333-162.474667-361.813333-361.813333s162.474667-361.813333 361.813333-361.813333 361.813333 162.474667 361.813333 361.813333-162.474667 361.813333-361.813333 361.813333z m0-682.666666c-176.810667 0-320.853333 144.042667-320.853333 320.853333s144.042667 320.853333 320.853333 320.853333 320.853333-144.042667 320.853333-320.853333-144.042667-320.853333-320.853333-320.853333z" fill="#4D4D4D" /></svg>