<?xml version="1.0" standalone="no"?><!DOCTYPE svg PUBLIC "-//W3C//DTD SVG 1.1//EN" "http://www.w3.org/Graphics/SVG/1.1/DTD/svg11.dtd"><svg class="icon" width="200px" height="200.00px" viewBox="0 0 1024 1024" version="1.1" xmlns="http://www.w3.org/2000/svg"><path d="M854.109091 93.090909C896 93.090909 930.909091 134.981818 930.909091 186.181818v512c0 51.2-34.909091 93.090909-76.8 93.090909H607.418182L512 884.363636l-95.418182-93.090909H169.890909C128 791.272727 93.090909 749.381818 93.090909 698.181818V186.181818c0-51.2 34.909091-93.090909 76.8-93.090909h684.218182m0-93.090909H169.890909C76.8 0 0 83.781818 0 186.181818v512c0 102.4 76.8 186.181818 169.890909 186.181818h209.454546l67.490909 67.490909C465.454545 968.145455 488.727273 977.454545 512 977.454545s46.545455-9.309091 65.163636-25.6l67.490909-67.490909h209.454546c93.090909 0 169.890909-83.781818 169.890909-186.181818V186.181818c0-102.4-76.8-186.181818-169.890909-186.181818z" fill="#1D2633" /><path d="M256 442.181818m-69.818182 0a69.818182 69.818182 0 1 0 139.636364 0 69.818182 69.818182 0 1 0-139.636364 0Z" fill="#176AFD" /><path d="M512 442.181818m-69.818182 0a69.818182 69.818182 0 1 0 139.636364 0 69.818182 69.818182 0 1 0-139.636364 0Z" fill="#176AFD" /><path d="M768 442.181818m-69.818182 0a69.818182 69.818182 0 1 0 139.636364 0 69.818182 69.818182 0 1 0-139.636364 0Z" fill="#176AFD" /></svg>