<?xml version="1.0" standalone="no"?><!DOCTYPE svg PUBLIC "-//W3C//DTD SVG 1.1//EN" "http://www.w3.org/Graphics/SVG/1.1/DTD/svg11.dtd"><svg class="icon" width="200px" height="200.00px" viewBox="0 0 1024 1024" version="1.1" xmlns="http://www.w3.org/2000/svg"><path fill="#1296db" d="M562.3 344.5h283.5c18.6 0 33.6-15 33.6-33.6s-15-33.6-33.6-33.6H562.3c-18.6 0-33.6 15-33.6 33.6s15.1 33.6 33.6 33.6zM845.8 663.3H562.3c-18.6 0-33.6 15-33.6 33.6s15 33.6 33.6 33.6h283.5c18.6 0 33.6-15 33.6-33.6 0-18.5-15-33.6-33.6-33.6zM412.5 310.9c0-62.3-42.7-114.8-100.4-129.7V98.7c0-18.6-15-33.6-33.6-33.6s-33.6 15-33.6 33.6v82.4c-57.7 14.9-100.4 67.4-100.4 129.7S187.3 425.6 245 440.6v126.7c-57.7 14.9-100.4 67.4-100.4 129.7S187.3 811.7 245 826.6v98.6c0 18.6 15 33.6 33.6 33.6s33.6-15 33.6-33.6v-98.6c57.7-14.9 100.4-67.4 100.4-129.7s-42.7-114.8-100.4-129.7V440.6c57.6-15 100.3-67.5 100.3-129.7z m-200.7 0c0-36.8 30-66.8 66.8-66.8s66.8 30 66.8 66.8-30 66.8-66.8 66.8c-36.9-0.1-66.8-30-66.8-66.8z m133.5 386c0 36.8-30 66.8-66.8 66.8s-66.8-30-66.8-66.8 30-66.8 66.8-66.8c36.9 0.1 66.8 30 66.8 66.8z"  /></svg>