<?xml version="1.0" standalone="no"?><!DOCTYPE svg PUBLIC "-//W3C//DTD SVG 1.1//EN" "http://www.w3.org/Graphics/SVG/1.1/DTD/svg11.dtd"><svg class="icon" width="200px" height="200.00px" viewBox="0 0 1024 1024" version="1.1" xmlns="http://www.w3.org/2000/svg"><path d="M282.112 747.861333a106.496 106.496 0 0 1-106.154667-115.029333l13.141334-161.962667H375.466667l12.970666 161.962667a106.496 106.496 0 0 1-106.325333 115.029333z" fill="#EDF4FF" /><path d="M282.112 747.690667a106.496 106.496 0 0 1-106.154667-114.858667l5.12-63.146667h202.069334l5.12 63.146667a106.325333 106.325333 0 0 1-106.154667 114.858667z" fill="#FFC670" /><path d="M386.048 606.378667a106.325333 106.325333 0 0 1-207.872 0l-2.218667 26.453333a106.496 106.496 0 1 0 212.309334 0z" fill="#FFA742" /><path d="M282.112 846.677333a63.658667 63.658667 0 0 0-63.488 63.488h127.146667a63.658667 63.658667 0 0 0-63.658667-63.488z" fill="#D8E3F0" /><path d="M720.213333 261.632a30.890667 30.890667 0 0 0-30.890666-30.890667h-136.533334a30.890667 30.890667 0 0 0-30.890666 30.890667 30.890667 30.890667 0 0 0 30.890666 30.890667h6.144v80.384a144.042667 144.042667 0 0 1-24.405333 80.213333 145.578667 145.578667 0 0 0-24.405333 80.554667v376.490666h221.866666v-375.466666a146.432 146.432 0 0 0-24.746666-81.578667A147.285333 147.285333 0 0 1 682.666667 371.541333v-79.018666h6.144a30.890667 30.890667 0 0 0 31.402666-30.890667z" fill="#79DEB4" /><path d="M682.666667 292.522667h6.144a30.890667 30.890667 0 1 0 0-61.781334h-36.522667v61.781334zM732.501333 534.698667a147.456 147.456 0 0 0-19.114666-71.850667c0 17.066667 6.656 324.266667-102.4 324.266667a221.866667 221.866667 0 0 1-100.010667-21.333334v144.725334h221.866667z" fill="#62CCA1" /><path d="M559.616 180.394667h123.562667v50.346666h-123.562667z" fill="#FFC670" /><path d="M510.122667 534.698667h100.693333a22.698667 22.698667 0 0 1 22.698667 22.698666v226.304a22.698667 22.698667 0 0 1-22.698667 22.698667h-100.693333V534.698667z" fill="#FFDEAD" /><path d="M522.581333 590.336a48.810667 48.810667 0 0 0-12.458666 1.706667v95.402666a48.810667 48.810667 0 0 0 12.458666 1.706667 49.493333 49.493333 0 0 0 0-98.816z" fill="#EDF4FF" /><path d="M806.570667 910.165333a123.562667 123.562667 0 0 0 123.562666-123.392H682.666667a123.392 123.392 0 0 0 123.904 123.392z" fill="#FFC670" /><path d="M806.570667 868.352a153.6 153.6 0 0 1-121.344-58.88 123.392 123.392 0 0 0 242.688 0 153.6 153.6 0 0 1-121.344 58.88z" fill="#FFA742" /><path d="M299.178667 618.325333m-17.066667 0a17.066667 17.066667 0 1 0 34.133333 0 17.066667 17.066667 0 1 0-34.133333 0Z" fill="#3D3D63" /><path d="M250.026667 682.837333m-17.066667 0a17.066667 17.066667 0 1 0 34.133333 0 17.066667 17.066667 0 1 0-34.133333 0Z" fill="#3D3D63" /><path d="M333.824 665.770667m-17.066667 0a17.066667 17.066667 0 1 0 34.133334 0 17.066667 17.066667 0 1 0-34.133334 0Z" fill="#3D3D63" /><path d="M136.533333 893.098667H102.4a17.066667 17.066667 0 0 0 0 34.133333h34.133333a17.066667 17.066667 0 0 0 0-34.133333zM921.6 893.098667h-23.381333a140.288 140.288 0 0 0 48.981333-106.325334 17.066667 17.066667 0 0 0-17.066667-17.066666H749.568V534.698667A164.181333 164.181333 0 0 0 722.090667 443.733333 129.536 129.536 0 0 1 699.733333 371.541333v-63.146666a47.957333 47.957333 0 0 0 0-93.354667v-34.133333a17.066667 17.066667 0 0 0-17.066666-17.066667h-123.050667a17.066667 17.066667 0 0 0-17.066667 17.066667v34.133333a47.957333 47.957333 0 0 0 0 93.354667v64.512A127.488 127.488 0 0 1 520.704 443.733333a161.109333 161.109333 0 0 0-27.306667 89.941334v359.424h-132.437333a80.725333 80.725333 0 0 0-61.781333-61.610667v-68.266667A123.392 123.392 0 0 0 405.333333 631.466667L392.533333 469.504a17.066667 17.066667 0 0 0-17.066666-15.701333H189.098667a17.066667 17.066667 0 0 0-17.066667 15.701333L159.061333 631.466667a123.050667 123.050667 0 0 0 105.984 132.096v68.266666a80.896 80.896 0 0 0-61.781333 61.952 17.066667 17.066667 0 0 0 1.536 34.133334h716.8a17.066667 17.066667 0 0 0 0-34.133334zM359.594667 487.936l5.12 64.682667h-165.205334l5.290667-64.682667z m-143.189334 214.016a88.576 88.576 0 0 1-23.381333-68.266667l3.754667-47.445333h170.666666l3.754667 47.445333a89.429333 89.429333 0 0 1-154.794667 68.266667zM238.933333 893.098667a46.421333 46.421333 0 0 1 86.357334 0z m337.749334-695.637334H665.6v16.213334h-88.917333z m-49.322667 409.6a32.256 32.256 0 0 1 0 63.658667z m0 160.085334h32.426667a17.066667 17.066667 0 0 0 0-34.133334h-32.426667V704.853333a66.048 66.048 0 0 0 0-131.925333v-21.162667h83.626667a5.802667 5.802667 0 0 1 5.632 5.802667v226.133333a5.802667 5.802667 0 0 1-5.632 5.802667h-83.797334z m0 125.098666v-68.608h83.626667a39.936 39.936 0 0 0 39.765333-39.936V557.568a39.936 39.936 0 0 0-39.765333-39.936H529.066667a125.781333 125.781333 0 0 1 20.309333-54.954667 162.816 162.816 0 0 0 27.306667-89.6v-80.384a17.066667 17.066667 0 0 0-4.949334-12.117333 17.066667 17.066667 0 0 0-12.117333-5.12h-6.144a13.824 13.824 0 1 1 0-27.648h136.533333a13.824 13.824 0 1 1 0 27.648h-68.266666a17.066667 17.066667 0 0 0 0 34.133333H665.6v61.952a163.328 163.328 0 0 0 27.477333 91.136 128.682667 128.682667 0 0 1 21.845334 72.021334V769.706667H682.666667a17.066667 17.066667 0 0 0-17.066667 17.066666 139.605333 139.605333 0 0 0 48.981333 106.325334z m279.381333 0a106.325333 106.325333 0 0 1-104.96-89.258666h209.92a106.666667 106.666667 0 0 1-105.130666 90.112z" fill="#3D3D63" /></svg>