<?xml version="1.0" standalone="no"?><!DOCTYPE svg PUBLIC "-//W3C//DTD SVG 1.1//EN" "http://www.w3.org/Graphics/SVG/1.1/DTD/svg11.dtd"><svg class="icon" width="200px" height="200.00px" viewBox="0 0 1024 1024" version="1.1" xmlns="http://www.w3.org/2000/svg"><path d="M671.961604 309.16115h-99.019949V128.755627c0-27.337738 22.120019-49.457757 49.457756-49.457756s49.457757 22.120019 49.457757 49.457756v180.405523h0.104436z" fill="#F7B239" /><path d="M705.977123 890.340986l-0.625594 18.364407c-0.73003 20.03334-17.112195 35.893324-37.145536 35.893324H356.539396c-20.03334 0-36.518918-15.859984-37.145536-35.893324l-0.625594-18.364407h387.208857z" fill="#2197D8" /><path d="M772.85936 510.330043l-6.260035 143.46886a401.758267 401.758267 0 0 1-44.032189 30.884476c-62.187723 37.77113-134.599965 58.744397-210.143247 58.744397-94.115539 0-183.431104-32.65887-254.174413-89.628873l-6.364471-143.46886h520.974355z" fill="#E6E6E6" /><path d="M766.494889 653.798903l-8.764459 199.186651c-0.938903 20.867807-18.155535 37.354408-39.023341 37.354408H305.933863c-20.972243 0-38.084439-16.485578-39.023341-37.354408l-8.764458-199.186651c70.743309 56.970003 160.058873 89.628874 254.174412 89.628873 75.543283 0 147.851089-20.972243 210.143248-58.744397a401.74598 401.74598 0 0 0 44.031165-30.884476zM781.624842 309.16115l-8.765482 201.168893H251.885005l-8.868895-201.168893H671.961604z" fill="#2BA5F7" /><path d="M379.285008 720.995473c-44.032188-15.233366-84.933335-38.084439-121.139968-67.195547l-6.364471-143.468859h118.114387l6.364471 143.468859 3.025581 67.195547z" fill="#CCCCCC" /><path d="M424.151663 890.340986h-118.2178c-20.972243 0-38.084439-16.485578-39.023341-37.354408l-8.764458-199.186652c36.206633 29.111108 77.10778 51.857744 121.139968 67.195547l5.738877 131.991105c0.937879 20.867807 18.154511 37.354408 39.126754 37.354408zM369.999392 510.330043H251.885005l-8.868895-201.168893h118.114387z" fill="#2197D8" /><path d="M876.365975 293.19673H687.927048V128.755627c0-36.102197-29.31998-65.422177-65.422177-65.422176-36.102197 0-65.422177 29.31998-65.422176 65.422176v164.441103H148.273953c-8.868895 0-15.96442 7.199962-15.96442 15.96442s7.095525 15.96442 15.96442 15.96442h79.403331l23.267794 528.592062c1.252212 28.58995 23.998848 51.231126 52.378902 52.587774l0.104436 3.025581c1.043339 28.797799 24.311133 51.335562 53.109956 51.335562h311.562161c28.797799 0 52.170029-22.537764 53.109955-51.335562l0.104437-3.025581c28.276641-1.356648 51.023277-23.998848 52.274465-52.587774l23.267794-528.592062h79.403331c8.868895 0 15.96442-7.199962 15.96442-15.96442s-6.990065-15.96442-15.85896-15.96442zM589.010511 128.755627c0-18.468843 15.025517-33.493337 33.493337-33.493336 18.468843 0 33.493337 15.025517 33.493336 33.493336v164.441103h-67.091109V128.755627h0.104436z m161.833266 516.905435c-11.686627 9.077767-23.998848 17.633353-36.72779 25.354472-60.831075 36.936663-130.635481 56.448846-201.899947 56.448846-86.185547 0-170.597725-29.006671-238.523302-81.698882l-5.216695-119.470011h487.68989l-5.322156 119.365575z m-82.74222 282.972211H356.539396a21.228214 21.228214 0 0 1-21.285552-20.555522l-0.104437-1.877805h354.237702v1.877805c-0.417745 11.582191-9.703361 20.555522-21.285552 20.555522z m50.605532-54.256707H305.933863a23.016942 23.016942 0 0 1-23.058921-22.120019l-7.303374-165.79775c69.491097 47.162206 152.337754 72.934423 236.749932 72.934423 77.003344 0 152.546627-21.076679 218.385525-61.039948 6.260035-3.756635 12.312221-7.721119 18.364407-11.894475l-7.303374 165.79775a23.020014 23.020014 0 0 1-23.060969 22.120019z m38.814469-380.009919H267.118371l-7.407811-169.241077h505.323244l-7.512246 169.241077z" fill="#333333" /><path d="M625.112707 123.642344m-15.96442 0a15.96442 15.96442 0 1 0 31.92884 0 15.96442 15.96442 0 1 0-31.92884 0Z" fill="#FFFFFF" /><path d="M729.975971 364.461196m-15.96442 0a15.96442 15.96442 0 1 0 31.92884 0 15.96442 15.96442 0 1 0-31.92884 0Z" fill="#FFFFFF" /><path d="M709.316013 857.26437h-0.730031c-8.764458-0.417745-15.651111-7.825556-15.233365-16.69445l17.528916-399.522101c0.417745-8.764458 7.825556-15.651111 16.69445-15.233366 8.764458 0.417745 15.651111 7.825556 15.233366 16.69445l-17.528916 399.522102c-0.417745 8.555586-7.512247 15.233366-15.96442 15.233365z" fill="#FFFFFF" /></svg>